<?xml version="1.0" standalone="no"?>
<!DOCTYPE svg PUBLIC "-//W3C//DTD SVG 20010904//EN"
 "http://www.w3.org/TR/2001/REC-SVG-20010904/DTD/svg10.dtd">
<svg version="1.0" xmlns="http://www.w3.org/2000/svg"
 width="300.000000pt" height="300.000000pt" viewBox="0 0 300.000000 300.000000"
 preserveAspectRatio="xMidYMid meet">
<metadata>
Created by potrace 1.14, written by Peter Selinger 2001-2017
</metadata>
<g transform="translate(0.000000,300.000000) scale(0.100000,-0.100000)"
fill="#000000" stroke="none">
<path d="M0 1500 l0 -1500 1500 0 1500 0 0 1500 0 1500 -1500 0 -1500 0 0
-1500z m606 751 c121 -132 221 -240 224 -240 3 -1 91 92 195 205 105 113 204
221 221 240 l32 34 176 0 176 0 0 -470 0 -470 -180 0 -180 0 -2 226 -3 227
-210 -231 c-116 -128 -215 -232 -222 -232 -6 0 -99 96 -206 213 -107 116 -203
220 -213 229 -19 16 -19 12 -16 -185 2 -111 0 -212 -3 -225 -5 -22 -6 -22
-183 -20 l-177 3 -3 459 c-2 361 0 461 10 468 7 4 88 8 179 8 l166 0 219 -239z
m1936 206 c74 -36 134 -104 154 -173 12 -43 15 -99 12 -291 l-3 -238 -30 -54
c-16 -29 -50 -69 -74 -88 -78 -59 -115 -65 -433 -61 -265 3 -286 4 -330 25
-64 29 -123 93 -148 161 -20 52 -21 72 -18 297 3 230 4 242 27 285 46 89 118
144 210 160 25 5 165 8 311 7 l265 -2 57 -28z m-1932 -1242 c118 -129 218
-235 222 -235 3 0 104 106 223 235 l217 235 179 0 179 0 1 -452 0 -453 227
452 227 453 202 0 203 0 221 -442 c121 -243 225 -452 230 -465 l9 -23 -195 0
-195 0 -35 70 -35 70 -203 0 -202 0 -35 -68 -35 -67 -372 -3 -373 -2 -2 224
-3 224 -214 -235 c-117 -128 -217 -232 -221 -231 -4 2 -102 106 -216 232
l-209 228 -5 -218 c-4 -121 -7 -220 -8 -221 -1 -2 -83 -3 -182 -3 l-180 0 0
458 c0 252 3 462 7 465 3 4 85 7 182 7 l176 -1 215 -234z"/>
<path d="M2001 2189 c-45 -18 -50 -36 -51 -172 0 -123 1 -129 25 -152 24 -25
26 -25 213 -25 252 0 242 -7 242 171 0 72 -4 139 -10 149 -5 10 -24 23 -41 29
-39 14 -344 14 -378 0z"/>
<path d="M2257 1005 c-15 -31 -27 -58 -27 -60 0 -3 27 -5 60 -5 l60 0 -30 60
c-17 33 -32 60 -33 60 -2 0 -15 -25 -30 -55z"/>
</g>
</svg>
